<svg xmlns="http://www.w3.org/2000/svg" viewBox="0 0 1200 800" role="img" aria-label="Коммерческий объект"><defs><linearGradient id="g" x1="0" y1="0" x2="1" y2="1"><stop stop-color="#fff7ed"/><stop offset="1" stop-color="#dbeafe"/></linearGradient><filter id="s" x="-20%" y="-20%" width="140%" height="140%"><feDropShadow dx="0" dy="28" stdDeviation="28" flood-color="#0f172a" flood-opacity=".2"/></filter></defs><rect width="1200" height="800" rx="52" fill="url(#g)"/><path d="M90 620 C260 485 330 660 485 520 C640 380 720 620 885 420 C990 292 1060 395 1130 340" fill="none" stroke="#fed7aa" stroke-width="30" stroke-linecap="round" opacity=".8"/><g filter="url(#s)" transform="translate(150 105)"><rect x="250" y="245" width="490" height="300" rx="28" fill="#111827"/><path d="M190 270 495 70 800 270" fill="#f97316"/><path d="M285 270 495 132 705 270" fill="#fdba74"/><rect x="340" y="330" width="120" height="215" rx="14" fill="#f8fafc"/><rect x="520" y="330" width="150" height="118" rx="16" fill="#f8fafc"/><rect x="542" y="352" width="106" height="74" rx="10" fill="#bfdbfe"/><rect x="100" y="530" width="800" height="50" rx="25" fill="#334155"/><circle cx="825" cy="205" r="68" fill="#fbbf24"/></g><g transform="translate(92 90)"><rect width="292" height="98" rx="32" fill="#fff" opacity=".92"/><circle cx="58" cy="49" r="24" fill="#f97316"/><rect x="98" y="30" width="145" height="14" rx="7" fill="#111827"/><rect x="98" y="55" width="108" height="10" rx="5" fill="#94a3b8"/></g></svg>