<svg xmlns="http://www.w3.org/2000/svg" width="96" height="96" viewBox="0 0 96 96" fill="none"><rect width="96" height="96" rx="28" fill="#FFF3E8"/><path d="M35.4 25.5L41.2 38.2C41.9 39.7 41.5 41.5 40.3 42.7L36.6 46.4C39.5 52.1 43.9 56.5 49.6 59.4L53.3 55.7C54.5 54.5 56.3 54.1 57.8 54.8L70.5 60.6C72.1 61.3 73 63 72.6 64.7L71.2 71.3C70.8 73 69.3 74.2 67.6 74.2C42.4 74.2 21.8 53.6 21.8 28.4C21.8 26.7 23 25.2 24.7 24.8L31.3 23.4C33 23 34.7 23.9 35.4 25.5Z" fill="#FF7A00"/><path d="M56 26C63.7 28.2 69.8 34.3 72 42" stroke="#111827" stroke-width="5" stroke-linecap="round"/><path d="M55 38C58 39 60.9 41.9 62 45" stroke="#111827" stroke-width="5" stroke-linecap="round"/></svg>