<svg xmlns="http://www.w3.org/2000/svg" width="96" height="96" viewBox="0 0 96 96" fill="none"><rect width="96" height="96" rx="28" fill="#E9FFF2"/><path d="M48 22C33.64 22 22 33.2 22 47.02C22 51.78 23.42 56.22 25.88 60.02L23.35 73.2L36.85 69.83C40.25 71.42 44.04 72.32 48 72.32C62.36 72.32 74 61.12 74 47.3C74 33.48 62.36 22 48 22Z" fill="#25D366"/><path d="M61.2 54.62C60.65 56.14 58.45 57.42 56.94 57.78C55.81 58.05 54.34 58.27 49.37 56.2C43.02 53.57 38.94 47.17 38.62 46.75C38.31 46.33 36.05 43.33 36.05 40.24C36.05 37.15 37.65 35.64 38.21 35.02C38.76 34.4 39.42 34.25 39.82 34.25H41.02C41.4 34.27 41.91 34.11 42.39 35.32C42.94 36.68 44.26 39.77 44.42 40.08C44.58 40.4 44.69 40.78 44.48 41.2C44.27 41.62 44.16 41.88 43.84 42.26C43.52 42.64 43.17 43.11 42.88 43.41C42.57 43.72 42.25 44.06 42.61 44.69C42.96 45.31 44.17 47.26 45.96 48.86C48.26 50.91 50.19 51.54 50.82 51.85C51.44 52.16 51.8 52.11 52.17 51.69C52.54 51.27 53.72 49.89 54.12 49.28C54.52 48.66 54.92 48.75 55.47 48.97C56.02 49.18 58.94 50.62 59.56 50.93C60.18 51.24 60.59 51.39 60.75 51.65C60.91 51.91 60.91 53.1 61.2 54.62Z" fill="white"/></svg>