<svg xmlns="http://www.w3.org/2000/svg" width="96" height="96" viewBox="0 0 96 96" fill="none"><rect width="96" height="96" rx="28" fill="#EAF6FF"/><circle cx="48" cy="48" r="28" fill="#2AABEE"/><path d="M62.74 33.58C63.92 33.1 65.13 34.11 64.72 35.54L57.48 60.95C57.13 62.18 55.68 62.69 54.6 61.96L44.05 54.86L38.68 60.03C37.91 60.77 36.62 60.38 36.42 59.34L35.39 53.83L25.56 50.57C24.33 50.16 24.24 48.46 25.41 47.93L62.74 33.58ZM56.92 40.32L39.13 51.32L40.01 55.78L41.37 52.67L54.23 42.18C54.94 41.6 54.3 40.74 53.52 41.19L37.71 50.27L30.87 48.06L56.92 40.32Z" fill="white"/></svg>