<svg xmlns="http://www.w3.org/2000/svg" width="1200" height="800" viewBox="0 0 1200 800" fill="none"><rect width="1200" height="800" fill="white"/><g opacity="0.6"><path d="M0 100H1200" stroke="#F3F4F6"/><path d="M0 200H1200" stroke="#F3F4F6"/><path d="M0 300H1200" stroke="#F3F4F6"/><path d="M0 400H1200" stroke="#F3F4F6"/><path d="M0 500H1200" stroke="#F3F4F6"/><path d="M0 600H1200" stroke="#F3F4F6"/><path d="M0 700H1200" stroke="#F3F4F6"/><path d="M100 0V800" stroke="#F3F4F6"/><path d="M200 0V800" stroke="#F3F4F6"/><path d="M300 0V800" stroke="#F3F4F6"/><path d="M400 0V800" stroke="#F3F4F6"/><path d="M500 0V800" stroke="#F3F4F6"/><path d="M600 0V800" stroke="#F3F4F6"/><path d="M700 0V800" stroke="#F3F4F6"/><path d="M800 0V800" stroke="#F3F4F6"/><path d="M900 0V800" stroke="#F3F4F6"/><path d="M1000 0V800" stroke="#F3F4F6"/><path d="M1100 0V800" stroke="#F3F4F6"/></g><circle cx="1020" cy="140" r="120" fill="#FFF7F1"/><circle cx="180" cy="660" r="140" fill="#FFF5ED"/></svg>